# xmcd
#
# Track frame offsets:
#	180
#	14404
#	29349
#	43393
#	54842
#	70826
#	84461
#	95373
#	107147
#	118361
#	131149
#	143485
#
# Disc length: 2111 seconds
#
# Revision: 0
# Processed by: cddbd v1.5.2PL0 Copyright (c) Steve Scherf et al.
# Submitted via: EZCDAudioConverter 1.0.3.1
#
DISCID=a6083d0c
DTITLE=Various Artist - Country Greats 1
DYEAR=2003
DGENRE=Country
TTITLE0=T. Graham Brown - Hell Or High Water
TTITLE1=Ed Bruce - You're the Best Break This Old Heart Ever Had
TTITLE2=Lee Greenwood - Dixie Road
TTITLE3=The Kendalls - Heaven's Just a Sin Away
TTITLE4=Johnny Lee - Lookin' For Love
TTITLE5=Mel McDaniel - Baby's Got Her Blue Jeans On
TTITLE6=Eddy Raven - I Got Mexico
TTITLE7=Conway Twitty - Linda On My Mind
TTITLE8=Roger Miller - King Of the Road
TTITLE9=Bill Anderson - Still
TTITLE10=Merle Haggard - Okie From Muskogee
TTITLE11=Don Gibson - Woman (Serious Woman)
EXTD=
EXTT0=
EXTT1=
EXTT2=
EXTT3=
EXTT4=
EXTT5=
EXTT6=
EXTT7=
EXTT8=
EXTT9=
EXTT10=
EXTT11=
PLAYORDER=
